<?xml version="1.0" standalone="no"?>
<!DOCTYPE svg PUBLIC "-//W3C//DTD SVG 20010904//EN"
 "http://www.w3.org/TR/2001/REC-SVG-20010904/DTD/svg10.dtd">
<svg version="1.0" xmlns="http://www.w3.org/2000/svg"
 width="700.000000pt" height="700.000000pt" viewBox="0 0 700.000000 700.000000"
 preserveAspectRatio="xMidYMid meet">
<metadata>
Created by potrace 1.14, written by Peter Selinger 2001-2017
</metadata>
<g transform="translate(0.000000,700.000000) scale(0.100000,-0.100000)"
fill="#000000" stroke="none">
<path d="M1768 6739 c-91 -22 -185 -63 -265 -116 -34 -22 -240 -219 -490 -469
-454 -454 -491 -497 -548 -639 -56 -140 -53 -34 -52 -2410 l2 -2200 23 -74
c90 -292 298 -492 587 -567 l90 -23 892 0 c986 -1 932 -5 1001 62 20 19 39 52
48 83 l15 51 197 0 197 -1 29 -40 c33 -46 62 -71 115 -102 91 -53 170 -61 327
-35 65 11 137 23 159 26 22 4 76 13 120 20 44 8 94 17 110 19 85 14 104 18
150 31 28 8 73 29 100 47 l50 33 230 1 c179 1 244 5 293 18 235 62 404 239
452 470 7 36 12 147 12 280 l1 221 412 415 c236 237 428 439 449 471 226 348
99 830 -268 1016 -61 31 -157 62 -216 70 -110 15 -280 0 -361 -32 -14 -5 -16
16 -16 195 0 196 1 200 21 200 64 1 146 69 166 138 6 24 10 391 10 1087 -1
1122 -1 1117 -51 1250 -96 257 -319 449 -590 511 -19 4 -774 9 -1679 10 -1579
2 -1648 1 -1722 -17z"/>
</g>
</svg>
